<?xml version="1.0" encoding="UTF-8"?>
<svg width="143px" height="34px" viewBox="0 0 143 34" version="1.1" xmlns="http://www.w3.org/2000/svg" xmlns:xlink="http://www.w3.org/1999/xlink">
    <title>BDBA5109-11A4-4FF7-AEC1-AC791BE15590</title>
    <defs>
        <linearGradient x1="63.2653497%" y1="43.0371278%" x2="107.155587%" y2="19.1079345%" id="linearGradient-1">
            <stop stop-color="#CA1517" offset="0%"></stop>
            <stop stop-color="#851A18" offset="100%"></stop>
        </linearGradient>
        <linearGradient x1="34.8195702%" y1="90.8771817%" x2="49.1623894%" y2="51.9579836%" id="linearGradient-2">
            <stop stop-color="#126D31" offset="0%"></stop>
            <stop stop-color="#008C39" offset="70%"></stop>
        </linearGradient>
        <linearGradient x1="9.78052545%" y1="66.5822411%" x2="94.6864138%" y2="29.7752088%" id="linearGradient-3">
            <stop stop-color="#008C39" offset="0%"></stop>
            <stop stop-color="#2E9437" offset="3%"></stop>
            <stop stop-color="#599E32" offset="7%"></stop>
            <stop stop-color="#86A729" offset="11%"></stop>
            <stop stop-color="#A8AE1C" offset="16%"></stop>
            <stop stop-color="#C2B40B" offset="20%"></stop>
            <stop stop-color="#D5B700" offset="25%"></stop>
            <stop stop-color="#E1B900" offset="31%"></stop>
            <stop stop-color="#E8BB00" offset="38%"></stop>
            <stop stop-color="#EABB00" offset="50%"></stop>
            <stop stop-color="#E9B600" offset="56%"></stop>
            <stop stop-color="#E7A600" offset="63%"></stop>
            <stop stop-color="#E28B05" offset="72%"></stop>
            <stop stop-color="#DA6113" offset="81%"></stop>
            <stop stop-color="#D13416" offset="90%"></stop>
            <stop stop-color="#CA1517" offset="100%"></stop>
        </linearGradient>
    </defs>
    <g id="01-Homepage" stroke="none" stroke-width="1" fill="none" fill-rule="evenodd">
        <g id="01.2-HOMEPAGE-Aviso" transform="translate(-80.000000, -69.000000)">
            <g id="Menu-/-Desktop" transform="translate(0.000000, 41.000000)">
                <g id="logosns" transform="translate(80.000000, 28.000000)">
                    <g id="Group" fill-rule="nonzero">
                        <path d="M17.0149796,0 C9.74810814,0.00155933677 3.28732453,4.63084772 0.94262447,11.5161831 C1.98569941,11.0510835 10.254848,4.59004237 18.8456556,9.64650937 C32.1025026,17.1649564 24.4541689,30.8357032 23.8624754,32.5582942 C31.2119333,29.3169504 35.2885441,21.3652266 33.6339979,13.4982337 C31.9794518,5.6312408 25.0461137,0 17.0149796,0 Z" id="Path" fill="url(#linearGradient-1)"></path>
                        <path d="M17.0149796,34 C24.2782174,33.9946882 30.7339857,29.3659436 33.0767452,22.4837872 C32.0336702,22.9502118 19.7815109,30.9629099 10.9286109,23.4802398 C6.99590071,20.1543142 6.83705681,14.602271 7.70275606,9.11515631 C8.420201,4.56884125 9.56520077,3.15234145 10.1515995,1.43770092 C2.79146365,4.67535049 -1.29220122,12.6358101 0.367536719,20.5101859 C2.02727466,28.3845616 8.97557204,34.0149178 17.0149796,34 L17.0149796,34 Z" id="Path-2" fill="url(#linearGradient-2)"></path>
                        <path d="M8.79877896,11.5161831 C5.51071026,15.5907732 5.74632871,20.8393754 3.03009804,21.2554474 C1.97113871,21.4210811 0.225179528,20.4882318 0.0544223368,17.6207804 C0.320762248,24.95404 5.25776028,31.2884903 12.2986395,33.33081 C10.6876977,31.0993921 10.1079174,29.9969339 10.1079174,27.024802 C10.1079174,19.5779088 16.0645636,14.0881439 23.2548974,13.4309092 C28.8647345,12.9207573 31.5544911,14.1543974 33.9770602,17.5757281 L33.9770602,17.0284742 C33.9989586,12.4832954 32.1848853,8.12214357 28.9468038,4.93588563 C27.867989,3.8387277 16.7144999,1.68946421 8.79877896,11.5161831 Z" id="Path-3" fill="url(#linearGradient-3)"></path>
                    </g>
                    <g id="Group-90" transform="translate(42.000000, 0.000000)" fill="#575353">
                        <polygon id="Fill-78" points="0.497497533 34 0 34 0 0 0.497497533 0.0210485587"></polygon>
                        <path d="M70.935293,28.2524279 L70.935293,24.9859547 C70.935293,23.9519443 71.3372187,22.9530148 72.1410699,21.9891662 C72.9954151,20.9775714 73.9788169,20.0836297 75.0658317,19.3304701 L78.5024923,16.9414587 C79.6241423,16.1783703 80.6288676,15.2547651 81.4848591,14.1998839 C82.3061665,13.1781518 82.7172565,12.1283549 82.7181293,11.0504933 C82.7232979,9.89332379 82.2778614,8.7800133 81.4770039,7.94846198 C80.6487142,7.0486361 79.4865774,6.59784613 77.9905936,6.59609209 C76.7302665,6.59609209 75.7077781,6.93988521 74.9231285,7.62747146 C74.1384789,8.31505772 73.7457177,9.30258593 73.7448449,10.5900561 C73.7413575,10.845234 73.6180635,11.0837469 73.412307,11.2333527 C73.1549723,11.4222915 72.8402057,11.5153176 72.5220483,11.4964597 C71.8238062,11.4964597 71.4746851,11.036461 71.4746851,10.1164635 C71.4746851,8.50098665 72.1061578,7.16703424 73.3691033,6.11460631 C74.6320488,5.06217837 76.1961112,4.5359644 78.0612906,4.5359644 C80.0687368,4.5359644 81.7305531,5.15207326 83.0467395,6.38429097 C84.362926,7.61650867 85.0205828,9.1469143 85.01971,10.9755078 C85.0146005,12.1121901 84.7116106,13.2274666 84.1412341,14.2090927 C83.5839912,15.2125673 82.8477424,16.1044408 81.9692646,16.8401625 C81.1069356,17.5601986 80.1616902,18.2894435 79.1335287,19.0278971 L76.2938651,20.982782 C75.4763968,21.5034193 74.7430439,22.1467088 74.1192772,22.8903076 C73.5353722,23.5971884 73.2434197,24.298807 73.2434197,24.9951635 L73.2434197,27.0842329 L84.4135486,27.0960727 C84.6482232,27.0964789 84.8687839,27.208757 85.0079272,27.3986458 C85.1696977,27.5977728 85.2559784,27.848078 85.2514391,28.105088 C85.2539618,28.3669892 85.1681277,28.6220272 85.0079272,28.8286322 C84.8737798,29.0256375 84.6524028,29.1444726 84.4148578,29.1469917 L72.0166955,29.1351519 C71.7523167,29.1318386 71.4960785,29.0427828 71.2861597,28.8812536 C71.0720334,28.7464954 70.9408219,28.5115519 70.9379114,28.2576901" id="Fill-80"></path>
                        <path d="M86.1338427,22.4114529 C86.1240142,22.211789 86.169324,22.0132828 86.2647631,21.8378797 L95.0442853,5.23188238 C95.2365542,4.80845208 95.6641399,4.54349052 96.1269971,4.56095957 C96.3996142,4.566344 96.6630238,4.66103877 96.877171,4.83064423 C97.0984877,4.96897817 97.2361217,5.20952067 97.2437481,5.47130973 C97.2397131,5.62281697 97.2035601,5.77171624 97.1377026,5.90806732 L89.0625321,21.2419423 L95.9044324,21.24852 L95.9044324,14.6971561 C95.9044324,14.1314761 96.288902,13.8486361 97.0578411,13.8486361 C97.3409721,13.8443947 97.6194147,13.9215307 97.8603832,14.0709615 C98.0830405,14.1993036 98.2169953,14.4406772 98.2086315,14.6984717 L98.2086315,21.2511511 L100.127925,21.2511511 C100.381251,21.2394284 100.62358,21.3559926 100.773362,21.5616173 C101.08219,21.9914919 101.074747,22.5737879 100.755033,22.9955504 C100.607106,23.1938482 100.373196,23.3084306 100.126615,23.3033856 L98.2060131,23.3033856 L98.2060131,28.272161 C98.2100069,28.5341001 98.0774322,28.7790773 97.8564556,28.9180886 C97.6186353,29.0771761 97.3382627,29.1597675 97.0526043,29.1548849 C96.7609866,29.1650266 96.4737923,29.0811255 96.2330426,28.9154575 C96.0188676,28.7722204 95.8935903,28.5279176 95.901814,28.2695299 L95.901814,23.3007545 L87.034575,23.2915458 C86.4284136,23.2915458 86.1259874,22.9981815 86.1272924,22.4114529" id="Fill-82"></path>
                        <path d="M15.8858818,29.2667054 C14.0647789,29.2667054 12.4636224,28.7917973 11.1112146,27.8538209 L11.1112146,27.8814471 L10.2955805,27.2473593 C8.68133195,25.9041981 8.19038044,23.6520023 8.05553243,22.7455988 L7.98614461,22.2825305 L11.8456781,21.4405881 L11.9451776,21.9391759 C12.05646,22.4943316 12.7647393,25.2622171 15.8858818,25.2622171 C17.5551169,25.2622171 18.5422567,24.4373767 18.9926229,23.9308957 C19.3421804,23.4112594 19.6053304,22.6758754 19.6053304,22.2062294 C19.6053304,21.6195009 19.4861929,21.1538015 19.2858846,20.9512091 L19.2505361,20.9104275 C18.9127615,20.4868253 17.0720206,19.2002322 16.3205375,18.6740182 C15.8450684,18.4347004 15.4152073,18.1131948 15.0506096,17.724202 C12.4780237,16.0140066 10.7564204,14.7734571 10.1214564,13.863107 C9.42757825,12.7948926 9.0191066,11.5714452 9.0191066,10.5742697 C9.0191066,9.06666667 9.66716259,7.4932869 10.7943873,6.25799961 C12.3955438,4.60568775 14.0673974,4.27680402 16.2642417,4.27680402 C17.7776816,4.27680402 19.3081411,4.80301799 20.6893514,5.80940221 C21.9540425,6.80657767 22.9608204,8.60754498 23.3326343,10.5216483 L23.4255878,11.000503 L19.545107,11.8398143 L19.4456075,11.3412265 C19.1143789,9.6783904 17.6572348,8.27339911 16.2642417,8.27339911 C14.6329735,8.27339911 14.1472588,8.49835558 13.6759453,9.00352099 C13.4821832,9.19822016 13.0095605,9.82573032 13.0095605,10.5242794 C13.0095605,10.7518669 13.2779473,11.2688721 13.4127953,11.5201393 C14.38213,12.3483387 15.3998892,13.1175457 16.4606223,13.8236409 C16.939791,14.1564713 17.4124137,14.4814084 17.8680167,14.8195009 C19.58962,16.0429483 21.495821,17.4295222 22.2198109,18.3385568 C23.0838855,19.3909847 23.555199,20.8670149 23.5093769,22.3904043 C23.5093769,23.7427742 22.9372547,25.3437802 22.0509236,26.4540917 C20.8595479,27.7525247 18.8459921,29.2667054 15.8858818,29.2667054" id="Fill-84"></path>
                        <polygon id="Fill-86" points="43.9643807 29.1390985 40.4936808 29.1390985 30.1313309 12.7133295 30.1313309 29.1390985 26.1840807 29.1390985 26.1840807 4.48071194 29.6547806 4.48071194 39.9320323 20.739408 39.9320323 4.48071194 43.9643807 4.48071194"></polygon>
                        <path d="M54.3044742,29.2667054 C52.4846806,29.2667054 50.883524,28.7917973 49.5311162,27.8538209 L49.5311162,27.8814471 L48.7154821,27.2473593 C47.1012336,25.9041981 46.610282,23.6520023 46.475434,22.7455988 L46.404737,22.2825305 L50.2616521,21.4432192 L50.3611516,21.9418069 C50.4711247,22.4969627 51.1807133,25.2648481 54.3005465,25.2648481 C55.9710909,25.2648481 56.9582307,24.4400077 57.4072877,23.9335268 C57.7581544,23.4138905 58.0213044,22.6785065 58.0213044,22.2088605 C58.0213044,21.6221319 57.9021668,21.1564326 57.7018586,20.9538402 L57.6652009,20.9130586 C57.3287355,20.4894564 55.4879946,19.2028632 54.7365115,18.6766493 C54.2608264,18.4376839 53.8309073,18.1161348 53.4665836,17.726833 C50.8939976,16.0166376 49.1723943,14.7760882 48.5374304,13.8657381 C47.8435522,12.7975237 47.4350806,11.5740762 47.4350806,10.5769008 C47.4350806,9.06929774 48.0818274,7.49591797 49.2103613,6.26063068 C50.8154454,4.60437222 52.487299,4.26891081 54.6841433,4.26891081 C56.1975832,4.26891081 57.7280427,4.79512478 59.109253,5.801509 C60.3739441,6.79868447 61.380722,8.59965177 61.7525359,10.5137551 L61.8454894,10.9926098 L57.9650086,11.8398143 L57.8655091,11.3412265 C57.5342805,9.6783904 56.0771364,8.27339911 54.6841433,8.27339911 C53.0528751,8.27339911 52.5671604,8.49835558 52.095847,9.00352099 C51.9020848,9.19822016 51.4294621,9.82573032 51.4294621,10.5242794 C51.4294621,10.7518669 51.6978489,11.2688721 51.8326969,11.5201393 C52.8316196,12.4028632 53.8724368,13.1250919 54.8792147,13.8236409 C55.3596926,14.1564713 55.8323153,14.4814084 56.2866091,14.8195009 C58.0095216,16.0429483 59.9157227,17.4295222 60.6397125,18.3385568 C61.5037871,19.3909847 61.9751006,20.8670149 61.9292785,22.3904043 C61.9292785,23.7427742 61.3571563,25.3437802 60.4708252,26.4540917 C59.2794495,27.7525247 57.2658937,29.2667054 54.3044742,29.2667054" id="Fill-88"></path>
                    </g>
                </g>
            </g>
        </g>
    </g>
</svg>